<svg width="50" height="50" viewBox="0 0 50 50" fill="none" xmlns="http://www.w3.org/2000/svg">
<path d="M10.4167 30.3834H11.9792C11.979 30.0795 11.8902 29.7823 11.7237 29.5281C11.5572 29.2739 11.3202 29.0737 11.0417 28.9522L10.4167 30.3834ZM39.5833 30.3834L38.9583 28.9522C38.6798 29.0737 38.4428 29.2739 38.2763 29.5281C38.1098 29.7823 38.021 30.0795 38.0208 30.3834H39.5833ZM32.8125 14.5834C32.8125 14.9978 32.9771 15.3952 33.2701 15.6883C33.5632 15.9813 33.9606 16.1459 34.375 16.1459C34.7894 16.1459 35.1868 15.9813 35.4798 15.6883C35.7729 15.3952 35.9375 14.9978 35.9375 14.5834H32.8125ZM14.0625 14.5834C14.0625 14.9978 14.2271 15.3952 14.5201 15.6883C14.8132 15.9813 15.2106 16.1459 15.625 16.1459C16.0394 16.1459 16.4368 15.9813 16.7298 15.6883C17.0229 15.3952 17.1875 14.9978 17.1875 14.5834H14.0625ZM14.5833 8.85425C11.4063 8.85425 8.3593 10.1163 6.11277 12.3629C3.86624 14.6094 2.60416 17.6563 2.60416 20.8334H5.72916C5.72916 18.4851 6.662 16.2331 8.32248 14.5726C9.98296 12.9121 12.2351 11.9792 14.5833 11.9792V8.85425ZM35.4167 11.9792C37.7649 11.9792 40.017 12.9121 41.6775 14.5726C43.338 16.2331 44.2708 18.4851 44.2708 20.8334H47.3958C47.3958 17.6563 46.1337 14.6094 43.8872 12.3629C41.6407 10.1163 38.5937 8.85425 35.4167 8.85425V11.9792ZM31.25 44.2709H18.75V47.3959H31.25V44.2709ZM18.75 44.2709C16.7417 44.2709 15.3917 44.2668 14.3854 44.1313C13.425 44.0022 13.0125 43.7792 12.7417 43.5063L10.5333 45.7188C11.4812 46.6668 12.6625 47.0522 13.9708 47.2293C15.2333 47.4001 16.8292 47.3959 18.75 47.3959V44.2709ZM8.85416 37.5001C8.85416 39.4209 8.84999 41.0168 9.02082 42.2793C9.19582 43.5876 9.58332 44.7688 10.5312 45.7168L12.7417 43.5084C12.4708 43.2376 12.2479 42.8251 12.1167 41.8626C11.9833 40.8584 11.9792 39.5084 11.9792 37.5001H8.85416ZM38.0208 37.5001C38.0208 39.5084 38.0167 40.8584 37.8812 41.8647C37.7521 42.8251 37.5292 43.2376 37.2562 43.5084L39.4687 45.7168C40.4167 44.7688 40.8021 43.5876 40.9792 42.2793C41.15 41.0168 41.1458 39.4209 41.1458 37.5001H38.0208ZM31.25 47.3959C33.1708 47.3959 34.7667 47.4001 36.0292 47.2293C37.3375 47.0543 38.5208 46.6668 39.4687 45.7168L37.2583 43.5084C36.9875 43.7793 36.575 44.0022 35.6125 44.1334C34.6083 44.2668 33.2583 44.2709 31.25 44.2709V47.3959ZM14.5833 11.9792C15.0292 11.9792 15.4646 12.0126 15.8917 12.0751L16.3479 8.98341C15.7637 8.89724 15.1739 8.85407 14.5833 8.85425V11.9792ZM25 2.60425C22.7141 2.60425 20.4856 3.32018 18.6274 4.65151C16.7693 5.98284 15.3747 7.86271 14.6396 10.0272L17.5979 11.0313C18.1232 9.4851 19.1197 8.14223 20.4473 7.19128C21.7749 6.24033 23.367 5.72906 25 5.72925V2.60425ZM14.6396 10.0272C14.2563 11.1592 14.0613 12.3465 14.0625 13.5417H17.1875C17.1875 12.6605 17.3333 11.8167 17.6 11.0313L14.6396 10.0272ZM35.4167 8.85425C34.8187 8.85425 34.2292 8.898 33.6521 8.98341L34.1104 12.0751C34.5429 12.0112 34.9795 11.9792 35.4167 11.9792V8.85425ZM25 5.72925C26.6327 5.72949 28.2243 6.24097 29.5515 7.19189C30.8787 8.14281 31.8748 9.48544 32.4 11.0313L35.3583 10.0272C34.6233 7.86305 33.2291 5.98341 31.3713 4.65211C29.5135 3.32082 27.2855 2.60469 25 2.60425V5.72925ZM32.4 11.0313C32.6667 11.8167 32.8125 12.6605 32.8125 13.5417H35.9375C35.9375 12.3147 35.7333 11.1334 35.3583 10.0272L32.4021 11.0313H32.4ZM11.9792 37.5001V30.3834H8.85416V37.5001H11.9792ZM11.0417 28.9522C9.46224 28.2626 8.11834 27.1271 7.1747 25.685C6.23106 24.2429 5.72869 22.5568 5.72916 20.8334H2.60416C2.604 23.1646 3.28392 25.4452 4.56058 27.3957C5.83725 29.3462 7.6552 30.882 9.79166 31.8147L11.0417 28.9522ZM38.0208 30.3834V37.5001H41.1458V30.3834H38.0208ZM44.2708 20.8334C44.2713 22.5568 43.7689 24.2429 42.8253 25.685C41.8816 27.1271 40.5377 28.2626 38.9583 28.9522L40.2083 31.8147C42.3448 30.882 44.1627 29.3462 45.4394 27.3957C46.7161 25.4452 47.396 23.1646 47.3958 20.8334H44.2708ZM32.8125 13.5417V14.5834H35.9375V13.5417H32.8125ZM14.0625 13.5417V14.5834H17.1875V13.5417H14.0625ZM25 20.823L23.9187 21.9522C24.2096 22.231 24.597 22.3867 25 22.3867C25.403 22.3867 25.7903 22.231 26.0812 21.9522L25 20.823ZM23.9292 27.2168C23.0604 26.5793 22.1 25.7793 21.3729 24.9418C20.6062 24.0542 20.3125 23.3647 20.3125 22.9167H17.1875C17.1875 24.5209 18.1062 25.9397 19.0104 26.9855C19.9542 28.0772 21.1229 29.0334 22.0812 29.7355L23.9292 27.2168ZM20.3125 22.9167C20.3125 21.7167 20.8604 21.1959 21.3375 21.0272C21.8583 20.8438 22.825 20.9022 23.9208 21.9522L26.0812 19.6938C24.3625 18.048 22.2042 17.4126 20.3042 18.0793C18.3583 18.7605 17.1875 20.6313 17.1875 22.9167H20.3125ZM27.9167 29.7376C28.875 29.0334 30.0458 28.0772 30.9896 26.9855C31.8937 25.9397 32.8125 24.5209 32.8125 22.9167H29.6875C29.6875 23.3647 29.3937 24.0542 28.625 24.9418C27.9 25.7813 26.9396 26.5793 26.0708 27.2168L27.9187 29.7376H27.9167ZM32.8125 22.9167C32.8125 20.6313 31.6396 18.7605 29.6958 18.0793C27.7958 17.4126 25.6375 18.0501 23.9187 19.6938L26.0812 21.9522C27.175 20.9022 28.1417 20.8438 28.6646 21.0272C29.1396 21.1938 29.6875 21.7167 29.6875 22.9167H32.8125ZM22.0833 29.7376C22.85 30.3001 23.7125 31.0022 25 31.0022V27.8772C24.95 27.8772 24.9167 27.8772 24.8042 27.8168C24.5 27.6356 24.2078 27.4352 23.9292 27.2168L22.0812 29.7376H22.0833ZM26.0708 27.2168C25.7922 27.4352 25.5 27.6356 25.1958 27.8168C25.0833 27.8772 25.05 27.8772 25 27.8772V31.0022C26.2875 31.0022 27.15 30.3001 27.9167 29.7376L26.0708 27.2168Z" fill="url(#paint0_linear_104_24)"/>
<path d="M10.4167 37.5H39.5833" stroke="url(#paint1_linear_104_24)" stroke-width="1.5" stroke-linecap="round" stroke-linejoin="round"/>
<defs>
<linearGradient id="paint0_linear_104_24" x1="25" y1="2.60425" x2="25" y2="47.3959" gradientUnits="userSpaceOnUse">
<stop stop-color="#E10101"/>
<stop offset="1" stop-color="#D910C5"/>
</linearGradient>
<linearGradient id="paint1_linear_104_24" x1="25" y1="37.5" x2="25" y2="38.5" gradientUnits="userSpaceOnUse">
<stop stop-color="#E10101"/>
<stop offset="1" stop-color="#D910C5"/>
</linearGradient>
</defs>
</svg>
