<svg width="249" height="89" viewBox="0 0 249 89" fill="none" xmlns="http://www.w3.org/2000/svg">
<path d="M109.917 30.3834H111.479C111.479 30.0795 111.39 29.7823 111.224 29.5281C111.057 29.2739 110.82 29.0737 110.542 28.9522L109.917 30.3834ZM139.083 30.3834L138.458 28.9522C138.18 29.0737 137.943 29.2739 137.776 29.5281C137.61 29.7823 137.521 30.0795 137.521 30.3834H139.083ZM132.313 14.5834C132.313 14.9978 132.477 15.3952 132.77 15.6883C133.063 15.9813 133.461 16.1459 133.875 16.1459C134.289 16.1459 134.687 15.9813 134.98 15.6883C135.273 15.3952 135.438 14.9978 135.438 14.5834H132.313ZM113.563 14.5834C113.563 14.9978 113.727 15.3952 114.02 15.6883C114.313 15.9813 114.711 16.1459 115.125 16.1459C115.539 16.1459 115.937 15.9813 116.23 15.6883C116.523 15.3952 116.688 14.9978 116.688 14.5834H113.563ZM114.083 8.85425C110.906 8.85425 107.859 10.1163 105.613 12.3629C103.366 14.6094 102.104 17.6563 102.104 20.8334H105.229C105.229 18.4851 106.162 16.2331 107.822 14.5726C109.483 12.9121 111.735 11.9792 114.083 11.9792V8.85425ZM134.917 11.9792C137.265 11.9792 139.517 12.9121 141.178 14.5726C142.838 16.2331 143.771 18.4851 143.771 20.8334H146.896C146.896 17.6563 145.634 14.6094 143.387 12.3629C141.141 10.1163 138.094 8.85425 134.917 8.85425V11.9792ZM130.75 44.2709H118.25V47.3959H130.75V44.2709ZM118.25 44.2709C116.242 44.2709 114.892 44.2668 113.885 44.1313C112.925 44.0022 112.513 43.7792 112.242 43.5063L110.033 45.7188C110.981 46.6668 112.163 47.0522 113.471 47.2293C114.733 47.4001 116.329 47.3959 118.25 47.3959V44.2709ZM108.354 37.5001C108.354 39.4209 108.35 41.0168 108.521 42.2793C108.696 43.5876 109.083 44.7688 110.031 45.7168L112.242 43.5084C111.971 43.2376 111.748 42.8251 111.617 41.8626C111.483 40.8584 111.479 39.5084 111.479 37.5001H108.354ZM137.521 37.5001C137.521 39.5084 137.517 40.8584 137.381 41.8647C137.252 42.8251 137.029 43.2376 136.756 43.5084L138.969 45.7168C139.917 44.7688 140.302 43.5876 140.479 42.2793C140.65 41.0168 140.646 39.4209 140.646 37.5001H137.521ZM130.75 47.3959C132.671 47.3959 134.267 47.4001 135.529 47.2293C136.838 47.0543 138.021 46.6668 138.969 45.7168L136.758 43.5084C136.488 43.7793 136.075 44.0022 135.113 44.1334C134.108 44.2668 132.758 44.2709 130.75 44.2709V47.3959ZM114.083 11.9792C114.529 11.9792 114.965 12.0126 115.392 12.0751L115.848 8.98341C115.264 8.89724 114.674 8.85407 114.083 8.85425V11.9792ZM124.5 2.60425C122.214 2.60425 119.986 3.32018 118.127 4.65151C116.269 5.98284 114.875 7.86271 114.14 10.0272L117.098 11.0313C117.623 9.4851 118.62 8.14223 119.947 7.19128C121.275 6.24033 122.867 5.72906 124.5 5.72925V2.60425ZM114.14 10.0272C113.756 11.1592 113.561 12.3465 113.563 13.5417H116.688C116.688 12.6605 116.833 11.8167 117.1 11.0313L114.14 10.0272ZM134.917 8.85425C134.319 8.85425 133.729 8.898 133.152 8.98341L133.61 12.0751C134.043 12.0112 134.479 11.9792 134.917 11.9792V8.85425ZM124.5 5.72925C126.133 5.72949 127.724 6.24097 129.051 7.19189C130.379 8.14281 131.375 9.48544 131.9 11.0313L134.858 10.0272C134.123 7.86305 132.729 5.98341 130.871 4.65211C129.014 3.32082 126.786 2.60469 124.5 2.60425V5.72925ZM131.9 11.0313C132.167 11.8167 132.313 12.6605 132.313 13.5417H135.438C135.438 12.3147 135.233 11.1334 134.858 10.0272L131.902 11.0313H131.9ZM111.479 37.5001V30.3834H108.354V37.5001H111.479ZM110.542 28.9522C108.962 28.2626 107.618 27.1271 106.675 25.685C105.731 24.2429 105.229 22.5568 105.229 20.8334H102.104C102.104 23.1646 102.784 25.4452 104.061 27.3957C105.337 29.3462 107.155 30.882 109.292 31.8147L110.542 28.9522ZM137.521 30.3834V37.5001H140.646V30.3834H137.521ZM143.771 20.8334C143.771 22.5568 143.269 24.2429 142.325 25.685C141.382 27.1271 140.038 28.2626 138.458 28.9522L139.708 31.8147C141.845 30.882 143.663 29.3462 144.939 27.3957C146.216 25.4452 146.896 23.1646 146.896 20.8334H143.771ZM132.313 13.5417V14.5834H135.438V13.5417H132.313ZM113.563 13.5417V14.5834H116.688V13.5417H113.563ZM124.5 20.823L123.419 21.9522C123.71 22.231 124.097 22.3867 124.5 22.3867C124.903 22.3867 125.29 22.231 125.581 21.9522L124.5 20.823ZM123.429 27.2168C122.56 26.5793 121.6 25.7793 120.873 24.9418C120.106 24.0542 119.813 23.3647 119.813 22.9167H116.688C116.688 24.5209 117.606 25.9397 118.51 26.9855C119.454 28.0772 120.623 29.0334 121.581 29.7355L123.429 27.2168ZM119.813 22.9167C119.813 21.7167 120.36 21.1959 120.838 21.0272C121.358 20.8438 122.325 20.9022 123.421 21.9522L125.581 19.6938C123.863 18.048 121.704 17.4126 119.804 18.0793C117.858 18.7605 116.688 20.6313 116.688 22.9167H119.813ZM127.417 29.7376C128.375 29.0334 129.546 28.0772 130.49 26.9855C131.394 25.9397 132.313 24.5209 132.313 22.9167H129.188C129.188 23.3647 128.894 24.0542 128.125 24.9418C127.4 25.7813 126.44 26.5793 125.571 27.2168L127.419 29.7376H127.417ZM132.313 22.9167C132.313 20.6313 131.14 18.7605 129.196 18.0793C127.296 17.4126 125.138 18.0501 123.419 19.6938L125.581 21.9522C126.675 20.9022 127.642 20.8438 128.165 21.0272C128.64 21.1938 129.188 21.7167 129.188 22.9167H132.313ZM121.583 29.7376C122.35 30.3001 123.213 31.0022 124.5 31.0022V27.8772C124.45 27.8772 124.417 27.8772 124.304 27.8168C124 27.6356 123.708 27.4352 123.429 27.2168L121.581 29.7376H121.583ZM125.571 27.2168C125.292 27.4352 125 27.6356 124.696 27.8168C124.583 27.8772 124.55 27.8772 124.5 27.8772V31.0022C125.788 31.0022 126.65 30.3001 127.417 29.7376L125.571 27.2168Z" fill="url(#paint0_linear_101_86)"/>
<path d="M109.917 37.5H139.083" stroke="url(#paint1_linear_101_86)" stroke-width="1.5" stroke-linecap="round" stroke-linejoin="round"/>
<path d="M0.956633 69.848C0.956633 68.0453 1.34663 66.442 2.12663 65.038C2.90663 63.6167 3.98997 62.516 5.37663 61.736C6.78063 60.9387 8.36663 60.54 10.1346 60.54C12.3013 60.54 14.156 61.112 15.6986 62.256C17.2413 63.4 18.2726 64.96 18.7926 66.936H13.9046C13.5406 66.1733 13.0206 65.5927 12.3446 65.194C11.686 64.7953 10.932 64.596 10.0826 64.596C8.7133 64.596 7.60397 65.0727 6.75463 66.026C5.9053 66.9793 5.48063 68.2533 5.48063 69.848C5.48063 71.4427 5.9053 72.7167 6.75463 73.67C7.60397 74.6233 8.7133 75.1 10.0826 75.1C10.932 75.1 11.686 74.9007 12.3446 74.502C13.0206 74.1033 13.5406 73.5227 13.9046 72.76H18.7926C18.2726 74.736 17.2413 76.296 15.6986 77.44C14.156 78.5667 12.3013 79.13 10.1346 79.13C8.36663 79.13 6.78063 78.74 5.37663 77.96C3.98997 77.1627 2.90663 76.062 2.12663 74.658C1.34663 73.254 0.956633 71.6507 0.956633 69.848ZM28.1193 79.208C26.698 79.208 25.4153 78.9047 24.2713 78.298C23.1447 77.6913 22.252 76.8247 21.5933 75.698C20.952 74.5713 20.6313 73.254 20.6313 71.746C20.6313 70.2553 20.9607 68.9467 21.6193 67.82C22.278 66.676 23.1793 65.8007 24.3233 65.194C25.4673 64.5873 26.75 64.284 28.1713 64.284C29.5927 64.284 30.8753 64.5873 32.0193 65.194C33.1633 65.8007 34.0647 66.676 34.7233 67.82C35.382 68.9467 35.7113 70.2553 35.7113 71.746C35.7113 73.2367 35.3733 74.554 34.6973 75.698C34.0387 76.8247 33.1287 77.6913 31.9673 78.298C30.8233 78.9047 29.5407 79.208 28.1193 79.208ZM28.1193 75.36C28.9687 75.36 29.688 75.048 30.2773 74.424C30.884 73.8 31.1873 72.9073 31.1873 71.746C31.1873 70.5847 30.8927 69.692 30.3033 69.068C29.7313 68.444 29.0207 68.132 28.1713 68.132C27.3047 68.132 26.5853 68.444 26.0133 69.068C25.4413 69.6747 25.1553 70.5673 25.1553 71.746C25.1553 72.9073 25.4327 73.8 25.9873 74.424C26.5593 75.048 27.27 75.36 28.1193 75.36ZM44.674 79.208C43.2527 79.208 41.97 78.9047 40.826 78.298C39.6993 77.6913 38.8067 76.8247 38.148 75.698C37.5067 74.5713 37.186 73.254 37.186 71.746C37.186 70.2553 37.5153 68.9467 38.174 67.82C38.8327 66.676 39.734 65.8007 40.878 65.194C42.022 64.5873 43.3047 64.284 44.726 64.284C46.1473 64.284 47.43 64.5873 48.574 65.194C49.718 65.8007 50.6193 66.676 51.278 67.82C51.9367 68.9467 52.266 70.2553 52.266 71.746C52.266 73.2367 51.928 74.554 51.252 75.698C50.5933 76.8247 49.6833 77.6913 48.522 78.298C47.378 78.9047 46.0953 79.208 44.674 79.208ZM44.674 75.36C45.5233 75.36 46.2427 75.048 46.832 74.424C47.4387 73.8 47.742 72.9073 47.742 71.746C47.742 70.5847 47.4473 69.692 46.858 69.068C46.286 68.444 45.5753 68.132 44.726 68.132C43.8593 68.132 43.14 68.444 42.568 69.068C41.996 69.6747 41.71 70.5673 41.71 71.746C41.71 72.9073 41.9873 73.8 42.542 74.424C43.114 75.048 43.8247 75.36 44.674 75.36ZM63.4907 79L59.0707 72.916V79H54.6247V59.76H59.0707V70.394L63.4647 64.492H68.9507L62.9187 71.772L69.0027 79H63.4907ZM72.933 62.984C72.153 62.984 71.5116 62.7587 71.009 62.308C70.5236 61.84 70.281 61.268 70.281 60.592C70.281 59.8987 70.5236 59.3267 71.009 58.876C71.5116 58.408 72.153 58.174 72.933 58.174C73.6956 58.174 74.3196 58.408 74.805 58.876C75.3076 59.3267 75.559 59.8987 75.559 60.592C75.559 61.268 75.3076 61.84 74.805 62.308C74.3196 62.7587 73.6956 62.984 72.933 62.984ZM75.143 64.492V79H70.697V64.492H75.143ZM87.2049 64.336C88.9036 64.336 90.2556 64.8907 91.2609 66C92.2836 67.092 92.7949 68.6 92.7949 70.524V79H88.3749V71.122C88.3749 70.1513 88.1236 69.3973 87.6209 68.86C87.1183 68.3227 86.4423 68.054 85.5929 68.054C84.7436 68.054 84.0676 68.3227 83.5649 68.86C83.0623 69.3973 82.8109 70.1513 82.8109 71.122V79H78.3649V64.492H82.8109V66.416C83.2616 65.7747 83.8683 65.272 84.6309 64.908C85.3936 64.5267 86.2516 64.336 87.2049 64.336ZM101.396 64.284C102.419 64.284 103.312 64.492 104.074 64.908C104.854 65.324 105.452 65.87 105.868 66.546V64.492H110.314V78.974C110.314 80.3087 110.046 81.5133 109.508 82.588C108.988 83.68 108.182 84.5467 107.09 85.188C106.016 85.8293 104.672 86.15 103.06 86.15C100.911 86.15 99.1691 85.6387 97.8345 84.616C96.4998 83.6107 95.7371 82.2413 95.5465 80.508H99.9405C100.079 81.0627 100.408 81.496 100.928 81.808C101.448 82.1373 102.09 82.302 102.852 82.302C103.771 82.302 104.499 82.0333 105.036 81.496C105.591 80.976 105.868 80.1353 105.868 78.974V76.92C105.435 77.596 104.837 78.1507 104.074 78.584C103.312 79 102.419 79.208 101.396 79.208C100.2 79.208 99.1171 78.9047 98.1465 78.298C97.1758 77.674 96.4045 76.7987 95.8325 75.672C95.2778 74.528 95.0005 73.2107 95.0005 71.72C95.0005 70.2293 95.2778 68.9207 95.8325 67.794C96.4045 66.6673 97.1758 65.8007 98.1465 65.194C99.1171 64.5873 100.2 64.284 101.396 64.284ZM105.868 71.746C105.868 70.6367 105.556 69.7613 104.932 69.12C104.326 68.4787 103.58 68.158 102.696 68.158C101.812 68.158 101.058 68.4787 100.434 69.12C99.8278 69.744 99.5245 70.6107 99.5245 71.72C99.5245 72.8293 99.8278 73.7133 100.434 74.372C101.058 75.0133 101.812 75.334 102.696 75.334C103.58 75.334 104.326 75.0133 104.932 74.372C105.556 73.7307 105.868 72.8553 105.868 71.746ZM135.369 79H130.923L123.487 67.742V79H119.041V60.748H123.487L130.923 72.058V60.748H135.369V79ZM144.103 64.284C145.126 64.284 146.019 64.492 146.781 64.908C147.561 65.324 148.159 65.87 148.575 66.546V64.492H153.021V78.974C153.021 80.3087 152.753 81.5133 152.215 82.588C151.695 83.68 150.889 84.5467 149.797 85.188C148.723 85.8293 147.379 86.15 145.767 86.15C143.618 86.15 141.876 85.6387 140.541 84.616C139.207 83.6107 138.444 82.2413 138.253 80.508H142.647C142.786 81.0627 143.115 81.496 143.635 81.808C144.155 82.1373 144.797 82.302 145.559 82.302C146.478 82.302 147.206 82.0333 147.743 81.496C148.298 80.976 148.575 80.1353 148.575 78.974V76.92C148.142 77.596 147.544 78.1507 146.781 78.584C146.019 79 145.126 79.208 144.103 79.208C142.907 79.208 141.824 78.9047 140.853 78.298C139.883 77.674 139.111 76.7987 138.539 75.672C137.985 74.528 137.707 73.2107 137.707 71.72C137.707 70.2293 137.985 68.9207 138.539 67.794C139.111 66.6673 139.883 65.8007 140.853 65.194C141.824 64.5873 142.907 64.284 144.103 64.284ZM148.575 71.746C148.575 70.6367 148.263 69.7613 147.639 69.12C147.033 68.4787 146.287 68.158 145.403 68.158C144.519 68.158 143.765 68.4787 143.141 69.12C142.535 69.744 142.231 70.6107 142.231 71.72C142.231 72.8293 142.535 73.7133 143.141 74.372C143.765 75.0133 144.519 75.334 145.403 75.334C146.287 75.334 147.033 75.0133 147.639 74.372C148.263 73.7307 148.575 72.8553 148.575 71.746ZM166.194 60.748V79H161.748V60.748H166.194ZM178.256 64.336C179.954 64.336 181.306 64.8907 182.312 66C183.334 67.092 183.846 68.6 183.846 70.524V79H179.426V71.122C179.426 70.1513 179.174 69.3973 178.672 68.86C178.169 68.3227 177.493 68.054 176.644 68.054C175.794 68.054 175.118 68.3227 174.616 68.86C174.113 69.3973 173.862 70.1513 173.862 71.122V79H169.416V64.492H173.862V66.416C174.312 65.7747 174.919 65.272 175.682 64.908C176.444 64.5267 177.302 64.336 178.256 64.336ZM186.051 71.72C186.051 70.2293 186.329 68.9207 186.883 67.794C187.455 66.6673 188.227 65.8007 189.197 65.194C190.168 64.5873 191.251 64.284 192.447 64.284C193.47 64.284 194.363 64.492 195.125 64.908C195.905 65.324 196.503 65.87 196.919 66.546V64.492H201.365V79H196.919V76.946C196.486 77.622 195.879 78.168 195.099 78.584C194.337 79 193.444 79.208 192.421 79.208C191.243 79.208 190.168 78.9047 189.197 78.298C188.227 77.674 187.455 76.7987 186.883 75.672C186.329 74.528 186.051 73.2107 186.051 71.72ZM196.919 71.746C196.919 70.6367 196.607 69.7613 195.983 69.12C195.377 68.4787 194.631 68.158 193.747 68.158C192.863 68.158 192.109 68.4787 191.485 69.12C190.879 69.744 190.575 70.6107 190.575 71.72C190.575 72.8293 190.879 73.7133 191.485 74.372C192.109 75.0133 192.863 75.334 193.747 75.334C194.631 75.334 195.377 75.0133 195.983 74.372C196.607 73.7307 196.919 72.8553 196.919 71.746ZM230.761 60.748V79H226.315V68.054L222.233 79H218.645L214.537 68.028V79H210.091V60.748H215.343L220.465 73.384L225.535 60.748H230.761ZM240.563 79.208C239.141 79.208 237.859 78.9047 236.715 78.298C235.588 77.6913 234.695 76.8247 234.037 75.698C233.395 74.5713 233.075 73.254 233.075 71.746C233.075 70.2553 233.404 68.9467 234.063 67.82C234.721 66.676 235.623 65.8007 236.767 65.194C237.911 64.5873 239.193 64.284 240.615 64.284C242.036 64.284 243.319 64.5873 244.463 65.194C245.607 65.8007 246.508 66.676 247.167 67.82C247.825 68.9467 248.155 70.2553 248.155 71.746C248.155 73.2367 247.817 74.554 247.141 75.698C246.482 76.8247 245.572 77.6913 244.411 78.298C243.267 78.9047 241.984 79.208 240.563 79.208ZM240.563 75.36C241.412 75.36 242.131 75.048 242.721 74.424C243.327 73.8 243.631 72.9073 243.631 71.746C243.631 70.5847 243.336 69.692 242.747 69.068C242.175 68.444 241.464 68.132 240.615 68.132C239.748 68.132 239.029 68.444 238.457 69.068C237.885 69.6747 237.599 70.5673 237.599 71.746C237.599 72.9073 237.876 73.8 238.431 74.424C239.003 75.048 239.713 75.36 240.563 75.36Z" fill="black"/>
<defs>
<linearGradient id="paint0_linear_101_86" x1="124.5" y1="2.60425" x2="124.5" y2="47.3959" gradientUnits="userSpaceOnUse">
<stop stop-color="#E10101"/>
<stop offset="1" stop-color="#D910C5"/>
</linearGradient>
<linearGradient id="paint1_linear_101_86" x1="124.5" y1="37.5" x2="124.5" y2="38.5" gradientUnits="userSpaceOnUse">
<stop stop-color="#E10101"/>
<stop offset="1" stop-color="#D910C5"/>
</linearGradient>
</defs>
</svg>
